<?xml version="1.0" encoding="utf-8"?>
<!-- Generator: Adobe Illustrator 26.3.1, SVG Export Plug-In . SVG Version: 6.00 Build 0)  -->
<svg version="1.1" id="圖層_1" xmlns="http://www.w3.org/2000/svg" xmlns:xlink="http://www.w3.org/1999/xlink" x="0px" y="0px"
	 viewBox="0 0 378.4 67.9" style="enable-background:new 0 0 378.4 67.9;" xml:space="preserve">
<style type="text/css">
	.st0{fill:#60AA2D;}
	.st1{fill:#BC0404;}
</style>
<g>
	<g>
		<path class="st0" d="M0.1,0.1L0,41.5c0,0,0.3,5.1,5.7,5.1l10.8,0c0,0,1.9,0.5,1.9,2.3l0,4.8c0,0-0.3,2.1-2.1,2.1l-15.9,0l0,12
			l26.1,0c0,0,5.1-0.9,5.1-6.6l0-20.7c0,0,0-6-6.3-6l-10.2,0c0,0-2.1,0.3-2.1-3.3l0-31.2L0.1,0.1z"/>
		<path class="st0" d="M68,0.2L68,41.6c0,0-0.3,5.1-5.7,5.1l-10.8,0c0,0-2,0.4-2,2.2l0,4.8c0,0,0.3,2.1,2.1,2.1l15.9,0l0,12l-26.1,0
			c0,0-5.1-0.9-5.1-6.6l0-20.7c0,0,0-6,6.3-6l10.2,0c0,0,2.1,0.3,2.1-3.3l0-31.2L68,0.2z"/>
		<path class="st1" d="M27.1,4.1l7.2,13.5l6.9-13.5c0,0,9.6,3.6,8.4,15c0,0-2.4,12-14.7,12.6c0,0-12.9,0.3-16.2-12.6
			C18.6,19.1,17.1,9.5,27.1,4.1z"/>
	</g>
	<g>
		<g>
			<path d="M110.2,28.7c-0.8,2-2.1,4.1-3.4,5.3c-0.4-0.4-1.3-1.1-1.8-1.4c1.3-1.1,2.4-2.8,3-4.5L110.2,28.7z M115.2,27.8l-8.9,0
				l0-15.7l8.9,0L115.2,27.8z M113,23l-4.4,0l0,2.8l4.4,0L113,23z M113,18.5l-4.4,0l0,2.8l4.4,0L113,18.5z M113,13.9l-4.4,0l0,2.7
				l4.4,0L113,13.9z M113.3,28.1c1,1.2,2.2,2.9,2.7,4l-2,1c-0.5-1.2-1.6-2.9-2.6-4.2L113.3,28.1z M128.1,19.1l-3,0l0,12.1
				c0,1.2-0.3,1.9-1.1,2.3c-0.8,0.3-2,0.4-3.8,0.4c-0.1-0.6-0.5-1.7-0.8-2.3c1.3,0.1,2.5,0.1,2.8,0c0.4,0,0.6-0.1,0.6-0.5l0-9.2
				c-1.6,3.2-3.7,6.2-5.9,8c-0.4-0.5-1.1-1.3-1.6-1.7c2.7-1.9,5.2-5.6,6.7-9.3l-6,0l0-2.2l6.9,0l0-5.8l2.3,0l0,5.8l3,0L128.1,19.1z"
				/>
			<path d="M151.8,12.2l0,21.9l-2.2,0l0-1.2l-16,0l0,1.3l-2.1,0l0-22L151.8,12.2z M149.6,31l0-17.1l-16,0l0,17.1L149.6,31z
				 M148.9,27.2l-3.4,0l0,2c0,0.8-0.2,1.1-0.8,1.3c-0.6,0.2-1.5,0.2-3,0.2c-0.1-0.4-0.3-0.9-0.5-1.2c0.8,0,1.7,0,2,0
				c0.3,0,0.4-0.1,0.4-0.3l0-1.9l-9.3,0l0-1.3l9.3,0l0-0.8l1.9,0l0,0.8l3.4,0L148.9,27.2z M146.1,22.7c0.9,0.7,1.9,1.6,2.4,2.2
				l-1.3,0.9c-0.2-0.3-0.6-0.7-1-1.1c-4.2,0.1-8.5,0.2-11.6,0.3l-0.1-1.3c1.6,0,3.7,0,5.9,0l0-1l-5.1,0l0-5l5.1,0l0-0.9l-6,0l0-1.4
				l6,0l0-1l1.9,0l0,1l6.1,0l0,1.4l-6.1,0l0,0.9l5.3,0l0,5L146.1,22.7z M138.7,30.2c-0.4-0.7-1.2-1.7-2-2.3l1.5-0.7
				c0.7,0.7,1.6,1.6,2,2.2L138.7,30.2z M140.5,21.6l0-0.9l-3.3,0l0,0.9L140.5,21.6z M137.2,19.6l3.3,0l0-0.9l-3.3,0L137.2,19.6z
				 M145,23.6c-0.1-0.1-0.3-0.2-0.4-0.4l0.9-0.6l-3.1,0l0,1L145,23.6z M145.9,21.6l0-0.9l-3.4,0l0,0.9L145.9,21.6z M142.4,18.7
				l0,0.9l3.4,0l0-0.9L142.4,18.7z"/>
			<path d="M159.8,22.5c-1-0.8-3-2-4.6-2.7l1.2-1.7c1.6,0.6,3.6,1.7,4.6,2.5L159.8,22.5z M156,32.2c1.4-1.9,3.3-5.1,4.7-7.9l1.7,1.6
				c-1.3,2.6-3,5.6-4.4,7.9L156,32.2z M157.9,11.4c1.6,0.7,3.6,1.8,4.7,2.6l-1.4,1.9c-1-0.9-3-2.1-4.6-2.8L157.9,11.4z M175.6,34.1
				c-0.2-0.7-0.5-1.5-1-2.4c-8.8,1.1-9.9,1.3-10.7,1.6c-0.1-0.5-0.5-1.7-0.8-2.3c0.5-0.1,1-0.7,1.6-1.6c0.5-0.7,2-3.1,3.1-5.8
				l-5.1,0l0-2.2l6.2,0l0-4l-5.1,0l0-2.2l5.1,0l0-4l2.4,0l0,4l5.3,0l0,2.2l-5.3,0l0,4l6.3,0l0,2.2l-6.9,0c-1.2,2.5-2.6,4.9-4,6.9
				l6.9-0.7c-0.6-1-1.3-2-1.9-2.9l1.9-0.9c1.7,2.2,3.5,5.1,4.3,7.1L175.6,34.1z"/>
			<path d="M192.8,11.3c0,0.9-0.1,2.2-0.2,3.7c0.3,3.1,1.9,13.1,10.6,17c-0.7,0.5-1.4,1.3-1.7,2c-5.9-2.8-8.6-8.3-9.9-12.8
				c-1.3,4.7-3.9,9.7-9.6,12.9c-0.4-0.6-1.1-1.4-1.9-1.9c10.2-5.3,10-16.9,10.1-20.9L192.8,11.3z"/>
			<path d="M208.2,11l8,0l0,2.1l-5.7,0l0,13.9l-2.3,0L208.2,11z"/>
			<path d="M225.4,23.4c0,0,0,0.6,0,0.9c-0.3,5.8-0.6,8.1-1.3,8.9c-0.5,0.6-0.9,0.8-1.7,0.8c-0.6,0.1-1.8,0.1-3,0
				c0-0.7-0.3-1.6-0.7-2.3c1.1,0.1,2.3,0.1,2.7,0.1c0.4,0,0.7,0,0.9-0.3c0.4-0.4,0.7-2.1,0.9-6.2l-4.8,0c0.2-2,0.3-5.2,0.3-7.6
				l4.5,0l0-3.3l-5,0l0-2.1l7.1,0l0,7.5l-4.7,0c0,1.2-0.1,2.4-0.1,3.5L225.4,23.4z M239.8,26.6c-1.1,0.8-2.4,1.7-3.5,2.4
				c1.3,1.3,2.8,2.4,4.4,3.1c-0.5,0.4-1.2,1.3-1.6,1.8c-3.5-1.8-6.4-5.4-8-9.3l-1.7,0l0,6.6l3.7-1.1c0,0.6,0.1,1.5,0.1,1.9
				c-4.7,1.6-5.5,1.9-5.9,2.3c-0.1-0.5-0.6-1.5-1-1.9c0.4-0.2,0.9-0.7,0.9-1.7l0-6.1l-1.3,0l0-2l1.8,0l0-10.2l12,0l0,1.8l-9.7,0
				l0,1.6l8.8,0l0,1.7l-8.8,0l0,1.6l8.8,0l0,1.7l-8.8,0l0,1.7l10.2,0l0,2l-7,0c0.5,1.1,1.2,2.1,2,3.1c1-0.8,2.2-1.8,2.9-2.6
				L239.8,26.6z"/>
			<path d="M260.9,31.6c1.7,0,2-0.5,2.2-3.2c0.5,0.4,1.6,0.8,2.2,0.9c-0.4,3.5-1.2,4.4-4.3,4.4l-6.8,0c-3.7,0-4.7-0.7-4.7-3.2l0-4.4
				c-1.8,0.9-3.6,1.8-5.4,2.5c-0.4-0.5-1.2-1.5-1.7-2c3.4-1.2,6.7-2.8,9.7-4.7l-9.1,0l0-2.1l8.2,0l0-3l-6,0l0-2.1l6,0l0-3.2l2.3,0
				l0,3.2l5.9,0l0,1.2c1-1.1,2-2.2,2.8-3.4l2.2,1.1c-1.7,2.3-3.6,4.4-5.7,6.3l6.6,0l0,2.1l-9.2,0c-1.4,1-2.8,2-4.2,2.9l0,0.6l10.6,0
				l0,2.1l-10.6,0l0,3c0,1,0.4,1.2,2.4,1.2L260.9,31.6z M255,19.7c1.2-0.9,2.4-2,3.4-3l-5.2,0l0,3L255,19.7z"/>
			<path d="M270.7,24.2l5.8,0l0,7.7l-5.8,0l0,1.6l-2.1,0l0-18.4l2.1,0c0.4-1.2,0.7-2.6,0.9-3.7l2.5,0.3c-0.4,1.1-0.9,2.4-1.4,3.4
				l3.5,0l0,7.1l-5.5,0L270.7,24.2z M270.7,26.2l0,3.7l3.7,0l0-3.7L270.7,26.2z M274.2,17l-3.5,0l0,3.2l3.5,0L274.2,17z M284.8,14.7
				l0,2.7l4.9,0l0,10.9c0,1-0.2,1.6-0.8,1.9c-0.7,0.3-1.5,0.3-2.8,0.3c-0.1-0.6-0.3-1.5-0.6-2c0.8,0,1.5,0,1.7,0
				c0.2,0,0.3-0.1,0.3-0.3l0-8.8l-2.7,0l0,14.8l-2.2,0l0-14.8l-2.5,0l0,11l-2.1,0l0-13.1l4.6,0l0-2.7l-5.5,0l0-2.1l13.3,0l0,2.1
				L284.8,14.7z"/>
			<path d="M299.9,34.5l-8,0l0-2.1l5.7,0l0-13.9l2.3,0L299.9,34.5z"/>
			<path d="M322.9,25.2c1.4,1.5,3.4,2.7,5.3,3.4c-0.5,0.4-1.2,1.2-1.5,1.8c-2.4-1.1-4.8-3-6.3-5.2l-7.4,0c-0.6,0.9-1.4,1.7-2.2,2.5
				l4.6,0l0-1.9l2.3,0l0,1.9l4.9,0l0,1.8l-4.9,0l0,2.2l8.4,0l0,1.9l-18.8,0l0-1.9l8.1,0l0-2.2l-4.8,0l0-1.6
				c-1.3,1.1-2.7,2.1-4.1,2.7c-0.3-0.6-1-1.4-1.5-1.8c2-0.7,4-2.1,5.4-3.7l-5.1,0l0-1.9l4.8,0l0-7.7l-3.6,0l0-1.9l3.6,0l0-2.2l2.3,0
				l0,2.2l8.5,0l0-2.1l2.4,0l0,2.1l3.6,0l0,1.9l-3.6,0l0,7.7l4.7,0l0,1.9L322.9,25.2z M312.4,23.2l8.5,0l0-1.5l-8.5,0L312.4,23.2z
				 M312.4,20l8.5,0l0-1.4l-8.5,0L312.4,20z M312.4,15.5l0,1.4l8.5,0l0-1.4L312.4,15.5z"/>
			<path d="M342.7,20.9l0,3l8.4,0l0,2.1l-8.4,0l0,5.6l9.6,0l0,2.1l-21.4,0l0-2.1l9.4,0l0-5.6l-8.2,0l0-2.1l8.2,0l0-3l-5.2,0l0-1.3
				c-1.2,0.6-2.4,1.1-3.6,1.6c-0.3-0.7-1-1.6-1.5-2.2c4.7-1.4,9.2-4.2,11.6-7.8l2.2,1c-0.2,0.3-0.4,0.6-0.7,0.9
				c2.4,2.5,6.6,4.8,10.4,6c-0.5,0.5-1.3,1.4-1.6,2c-1.2-0.5-2.5-1-3.7-1.7l0,1.5L342.7,20.9z M335.8,26.3c0.9,1.3,1.9,3.2,2.3,4.3
				l-2,0.9c-0.3-1.2-1.3-3.1-2.2-4.5L335.8,26.3z M346.9,18.8c-1.9-1.2-3.8-2.6-5.3-4.1c-1.5,1.6-3.2,2.9-5,4L346.9,18.8z
				 M344.6,30.8c0.9-1.2,1.9-3.1,2.4-4.5l2.2,0.8c-1,1.6-2.1,3.3-2.9,4.4L344.6,30.8z"/>
			<path d="M368.3,12.1c-0.1,0.1-0.2,0.3-0.4,0.5c2.3,2.2,6.5,4.1,10.4,4.9c-0.5,0.4-1.1,1.2-1.5,1.8c-0.6-0.2-1.2-0.4-1.9-0.6
				l0,6.5l-16.9,0l0-6.3c-0.6,0.2-1.2,0.4-1.8,0.6c-0.2-0.4-0.8-1.4-1.2-1.8c4.5-1.1,9-3.3,11.2-6.2L368.3,12.1z M374.9,18.6
				c-1.3-0.5-2.7-1.1-4-1.8l0,0.7l-8.6,0l0-0.6c-1.2,0.6-2.4,1.2-3.6,1.6L374.9,18.6z M359.5,26.1l14.2,0l0,8.2l-2.4,0l0-0.7l-9.6,0
				l0,0.8l-2.3,0L359.5,26.1z M362.9,20.2c0.5,0.9,1.1,2,1.3,2.8l-1.7,0.5l2.9,0l0-3.4l-5.4,0l0,3.4l2.4,0c-0.2-0.8-0.6-1.9-1.2-2.8
				L362.9,20.2z M371.4,32l0-1.4l-9.6,0l0,1.4L371.4,32z M361.8,27.7l0,1.4l9.6,0l0-1.4L361.8,27.7z M369.5,15.9
				c-1-0.6-1.9-1.4-2.7-2.1c-0.8,0.7-1.8,1.5-2.7,2.1L369.5,15.9z M373,20.1l-5.5,0l0,3.4l2.8,0l-1.5-0.5c0.5-0.8,1-2.1,1.3-2.9
				l1.9,0.6c-0.6,1.1-1.1,2.1-1.6,2.8l2.6,0L373,20.1z"/>
		</g>
		<g>
			<path class="st0" d="M108.5,47.5l-3.9,0l0-1.7l9.9,0l0,1.7l-3.9,0l0,11.5l-2.1,0L108.5,47.5z"/>
			<path class="st0" d="M116.8,45.8l7.8,0l0,1.7l-5.7,0l0,3.7l4.9,0l0,1.8l-4.9,0l0,4.3l5.9,0l0,1.8l-8,0L116.8,45.8z"/>
			<path class="st0" d="M133.7,55.3l-4.6,0l-1.1,3.8l-2.1,0l4.4-13.2l2.4,0L137,59l-2.2,0L133.7,55.3z M133.2,53.6l-0.5-1.8
				c-0.4-1.4-0.8-2.9-1.3-4.4h-0.1c-0.4,1.5-0.8,3-1.2,4.4l-0.5,1.8L133.2,53.6z"/>
			<path class="st0" d="M137.8,52.5c0-4.3,2.6-6.9,6-6.9c1.7,0,2.9,0.8,3.8,1.7l-1.1,1.3c-0.7-0.7-1.5-1.2-2.6-1.2
				c-2.3,0-3.9,1.9-3.9,5c0,3.1,1.5,5.1,3.8,5.1c1.2,0,2.1-0.5,2.9-1.4l1.1,1.3c-1.1,1.2-2.4,1.9-4.1,1.9
				C140.4,59.3,137.8,56.8,137.8,52.5z"/>
			<path class="st0" d="M150.2,45.8l2.1,0l0,5.4l5.7,0l0-5.4l2.1,0l0,13.2l-2.1,0l0-6l-5.7,0l0,6l-2.1,0L150.2,45.8z"/>
			<path class="st0" d="M163.5,45.8l7.8,0l0,1.7l-5.7,0l0,3.7l4.9,0l0,1.8l-4.9,0l0,4.3l5.9,0l0,1.8l-8,0L163.5,45.8z"/>
			<path class="st0" d="M181.5,59.1l-3-5.3l-2.1,0l0,5.3l-2.1,0l0-13.2l4.3,0c2.7,0,4.8,1,4.8,3.8c0,2.1-1.1,3.3-2.8,3.8l3.2,5.6
				L181.5,59.1z M176.4,52.1l2,0c1.9,0,3-0.8,3-2.4c0-1.6-1-2.2-3-2.2l-2,0L176.4,52.1z"/>
			<path class="st0" d="M193.5,52.5c0-4.3,2.6-6.9,6-6.9c1.7,0,2.9,0.8,3.8,1.7l-1.1,1.3c-0.7-0.7-1.5-1.2-2.6-1.2
				c-2.3,0-3.9,1.9-3.9,5c0,3.1,1.5,5.1,3.8,5.1c1.2,0,2.1-0.5,2.9-1.4l1.1,1.3c-1.1,1.2-2.4,1.9-4.1,1.9
				C196,59.4,193.4,56.9,193.5,52.5z"/>
			<path class="st0" d="M205.8,45.9l2.1,0l0,5.4l5.7,0l0-5.4l2.1,0l0,13.2l-2.1,0l0-6l-5.7,0l0,6l-2.1,0L205.8,45.9z"/>
			<path class="st0" d="M225.2,55.4l-4.6,0l-1.1,3.8l-2.1,0l4.4-13.2l2.4,0l4.4,13.2l-2.2,0L225.2,55.4z M224.7,53.8l-0.5-1.8
				c-0.4-1.4-0.8-2.9-1.3-4.4h-0.1c-0.4,1.5-0.8,3-1.2,4.4l-0.5,1.8L224.7,53.8z"/>
			<path class="st0" d="M230.3,45.9l2.1,0l4.4,7.8l1.4,2.8h0.1c-0.1-1.4-0.3-3-0.3-4.4l0-6.2l2,0l0,13.2l-2.1,0l-4.4-7.8l-1.4-2.8
				H232c0.1,1.4,0.3,2.9,0.3,4.3l0,6.2l-2,0L230.3,45.9z"/>
			<path class="st0" d="M242.8,52.6c0-4.3,2.7-6.9,6.2-6.9c1.9,0,3.1,0.8,3.9,1.7l-1.1,1.3c-0.6-0.7-1.5-1.2-2.7-1.2
				c-2.5,0-4.1,1.9-4.1,5c0,3.1,1.5,5.1,4.2,5.1c0.8,0,1.6-0.2,2.1-0.6l0-3.1l-2.6,0l0-1.7l4.5,0l0,5.7c-0.9,0.9-2.4,1.5-4.2,1.5
				C245.4,59.4,242.8,56.9,242.8,52.6z"/>
			<path class="st0" d="M264.2,46l7.8,0l0,1.7l-5.8,0l0,4l4.9,0l0,1.7l-4.9,0l0,5.7l-2.1,0L264.2,46z"/>
			<path class="st0" d="M273.5,52.6c0-4.3,2.4-6.8,5.8-6.8s5.8,2.6,5.8,6.8c0,4.3-2.4,6.9-5.8,6.9C275.8,59.5,273.5,56.8,273.5,52.6
				z M282.9,52.6c0-3.1-1.4-5-3.6-5c-2.2,0-3.6,1.9-3.6,5c0,3.1,1.4,5.1,3.6,5.1C281.4,57.7,282.9,55.7,282.9,52.6z"/>
			<path class="st0" d="M287.7,53.6l0-7.6l2.1,0l0,7.7c0,3,1.2,4,2.8,4c1.7,0,2.9-1,2.9-4l0-7.7l2,0l0,7.6c0,4.3-2,5.9-4.9,5.9
				C289.7,59.5,287.7,57.9,287.7,53.6z"/>
			<path class="st0" d="M301,46l2.1,0l4.4,7.8l1.4,2.8h0.1c-0.1-1.4-0.3-3-0.3-4.4l0-6.2l2,0l0,13.2l-2.1,0l-4.4-7.8l-1.4-2.8h-0.1
				c0.1,1.4,0.3,2.9,0.3,4.3l0,6.2l-2,0L301,46z"/>
			<path class="st0" d="M314.2,46.1l3.4,0c4.1,0,6.4,2.3,6.4,6.6c0,4.3-2.3,6.7-6.3,6.7l-3.5,0L314.2,46.1z M317.5,57.6
				c2.8,0,4.4-1.7,4.4-5c0-3.3-1.5-4.9-4.4-4.9l-1.2,0l0,9.8L317.5,57.6z"/>
			<path class="st0" d="M332.7,55.6l-4.6,0l-1.1,3.8l-2.1,0l4.4-13.2l2.4,0l4.4,13.2l-2.2,0L332.7,55.6z M332.2,53.9l-0.5-1.8
				c-0.4-1.4-0.8-2.9-1.3-4.4h-0.1c-0.4,1.5-0.8,3-1.2,4.4l-0.5,1.8L332.2,53.9z"/>
			<path class="st0" d="M339.2,47.8l-3.9,0l0-1.7l9.9,0l0,1.7l-3.9,0l0,11.5l-2.1,0L339.2,47.8z"/>
			<path class="st0" d="M347.5,46.1l2.1,0l0,13.2l-2.1,0L347.5,46.1z"/>
			<path class="st0" d="M352.3,52.7c0-4.3,2.4-6.8,5.8-6.8c3.4,0,5.8,2.6,5.8,6.8c0,4.3-2.4,6.9-5.8,6.9S352.3,56.9,352.3,52.7z
				 M361.7,52.7c0-3.1-1.4-5-3.6-5c-2.2,0-3.6,1.9-3.6,5c0,3.1,1.4,5.1,3.6,5.1C360.3,57.8,361.7,55.8,361.7,52.7z"/>
			<path class="st0" d="M366.6,46.1l2.1,0l4.4,7.8l1.4,2.8h0.1c-0.1-1.4-0.3-3-0.3-4.4l0-6.2l2,0l0,13.2l-2.1,0l-4.4-7.8l-1.4-2.8
				h-0.1c0.1,1.4,0.3,2.9,0.3,4.3l0,6.2l-2,0L366.6,46.1z"/>
		</g>
	</g>
</g>
</svg>
